<?xml version="1.0" encoding="UTF-8" standalone="no"?>
<!-- Created with Inkscape (http://www.inkscape.org/) -->

<svg
   width="64mm"
   height="64mm"
   viewBox="0 0 64 64"
   version="1.1"
   id="svg1"
   xml:space="preserve"
   inkscape:export-filename="icon-16px.png"
   inkscape:export-xdpi="6.3499999"
   inkscape:export-ydpi="6.3499999"
   inkscape:version="1.4.2 (f4327f4, 2025-05-13)"
   sodipodi:docname="Icon.svg"
   xmlns:inkscape="http://www.inkscape.org/namespaces/inkscape"
   xmlns:sodipodi="http://sodipodi.sourceforge.net/DTD/sodipodi-0.dtd"
   xmlns="http://www.w3.org/2000/svg"
   xmlns:svg="http://www.w3.org/2000/svg"><sodipodi:namedview
     id="namedview1"
     pagecolor="#ffffff"
     bordercolor="#000000"
     borderopacity="0.25"
     inkscape:showpageshadow="2"
     inkscape:pageopacity="0.0"
     inkscape:pagecheckerboard="0"
     inkscape:deskcolor="#d1d1d1"
     inkscape:document-units="mm"
     inkscape:zoom="1.1149729"
     inkscape:cx="143.05281"
     inkscape:cy="186.10318"
     inkscape:window-width="1920"
     inkscape:window-height="1129"
     inkscape:window-x="-8"
     inkscape:window-y="-8"
     inkscape:window-maximized="1"
     inkscape:current-layer="svg1" /><defs
     id="defs1" /><g
     inkscape:label="Ebene 1"
     inkscape:groupmode="layer"
     id="layer1" /><path
     d="m 23.795394,8.626684 c -0.756362,0 -1.367435,0.611073 -1.367435,1.367435 v 1.705019 l 8.358443,6.127816 c 0.722176,0.52988 1.705019,0.52988 2.427195,0 L 41.57204,11.699138 V 9.994119 c 0,-0.756362 -0.611072,-1.367435 -1.367435,-1.367435 z m -1.367435,4.768928 v 7.537981 c 0,0.756363 0.611073,1.367435 1.367435,1.367435 h 16.409211 c 0.756363,0 1.367435,-0.611072 1.367435,-1.367435 v -7.537981 l -7.550801,5.533836 c -1.205051,0.880285 -2.841699,0.880285 -4.042479,0 z M 21.060525,9.994119 c 0,-1.508451 1.226418,-2.734869 2.734869,-2.734869 h 16.409211 c 1.508452,0 2.73487,1.226418 2.73487,2.734869 v 10.939474 c 0,1.508451 -1.226418,2.734869 -2.73487,2.734869 H 23.795394 c -1.508451,0 -2.734869,-1.226418 -2.734869,-2.734869 z"
     id="path1"
     style="stroke-width:0.0427323" /><path
     d="m 32.714056,37.578546 -0.716559,0.719729 -0.71656,-0.716559 -4.565685,-4.565686 -0.71973,-0.71973 1.436289,-1.433118 0.716559,0.716559 2.83453,2.83453 v -9.220149 -1.014597 h 2.029193 v 1.014597 9.216979 l 2.834531,-2.83453 0.71656,-0.713389 1.436288,1.433118 -0.716559,0.716559 -4.565686,4.565687 z"
     id="path1-5"
     style="stroke-width:0.0317061" /><g
     id="LOGO"
     transform="matrix(0.16646652,0,0,0.16646652,0.37808708,16.116052)"><g
       id="g4"><path
         class="st2"
         d="m 265.3,174.4 -0.2,-0.6 -21.2,-55.3 c -0.4,-1.1 -1.2,-2 -2.2,-2.6 -1,-0.6 -2.1,-0.9 -3.3,-0.9 -1.2,0 -2.3,0.5 -3.2,1.2 -0.9,0.7 -1.6,1.7 -1.9,2.9 L 219,162.9 h -57.9 l -14.3,-43.8 c -0.3,-1.1 -1,-2.1 -1.9,-2.9 -0.9,-0.7 -2,-1.2 -3.2,-1.2 -1.2,0 -2.3,0.2 -3.3,0.9 -1,0.6 -1.8,1.5 -2.2,2.6 l -21.2,55.3 -0.2,0.6 c -6.3,16.4 -0.9,34.9 13.1,45.5 h 0.2 c 0,0.1 32.3,24.3 32.3,24.3 l 16,12.1 9.7,7.3 c 2.3,1.8 5.6,1.8 7.9,0 l 9.7,-7.3 16,-12.1 32.5,-24.3 v 0 c 14,-10.6 19.3,-29.1 13,-45.5 z"
         id="path1-1"
         style="fill:#e24329" /><path
         class="st1"
         d="m 265.3,174.4 -0.2,-0.6 c -10.5,2.2 -20.2,6.6 -28.5,12.8 -0.1,0 -25.2,19.1 -46.6,35.2 15.8,12 29.6,22.4 29.6,22.4 l 32.5,-24.3 v 0 c 14,-10.6 19.3,-29.1 13,-45.5 z"
         id="path2"
         style="fill:#fc6d26" /><path
         class="st0"
         d="m 160.3,244.2 16,12.1 9.7,7.3 c 2.3,1.8 5.6,1.8 7.9,0 l 9.7,-7.3 16,-12.1 c 0,0 -13.8,-10.4 -29.6,-22.4 -15.9,12 -29.7,22.4 -29.7,22.4 z"
         id="path3"
         style="fill:#fca326" /><path
         class="st1"
         d="m 143.4,186.6 c -8.3,-6.2 -18,-10.7 -28.5,-12.8 l -0.2,0.6 c -6.3,16.4 -0.9,34.9 13.1,45.5 h 0.2 c 0,0.1 32.3,24.3 32.3,24.3 0,0 13.8,-10.4 29.7,-22.4 -21.3,-16.1 -46.4,-35.1 -46.6,-35.2 z"
         id="path4"
         style="fill:#fc6d26" /></g></g></svg>
